REM DIRINDEX 1\2,1\3,1\4,1\5
REM DIRNAME "folder01","folder02","folder03","folder04","folder05"
TITLE ""
FILE "P1Q_t_0201-0209.mp3" MP3
  TRACK 01 AUDIO
    TITLE "0:"
    INDEX 01 00:00:00
  TRACK 02 AUDIO
    TITLE "2:cjc173_1516"
    INDEX 01 00:00:08
  TRACK 03 AUDIO
    TITLE "0:"
    INDEX 01 00:01:51
  TRACK 04 AUDIO
    TITLE "2:cjc173_1517"
    INDEX 01 00:02:23
  TRACK 05 AUDIO
    TITLE "0:"
    INDEX 01 00:03:26
  TRACK 06 AUDIO
    TITLE "3:cjc173_1518"
    INDEX 01 00:03:71
  TRACK 07 AUDIO
    TITLE "0:"
    INDEX 01 00:05:02
  TRACK 08 AUDIO
    TITLE "4:cjc173_1519"
    INDEX 01 00:05:23
  TRACK 09 AUDIO
    TITLE "0:"
    INDEX 01 00:09:50
  TRACK 10 AUDIO
    TITLE "5:cjc173_1520"
    INDEX 01 00:09:72
  TRACK 11 AUDIO
    TITLE "0:"
    INDEX 01 00:14:18
  TRACK 12 AUDIO
    TITLE "3:cjc173_1521"
    INDEX 01 00:14:65
  TRACK 13 AUDIO
    TITLE "0:"
    INDEX 01 00:16:00
  TRACK 14 AUDIO
    TITLE "4:cjc173_1522"
    INDEX 01 00:16:21
  TRACK 15 AUDIO
    TITLE "0:"
    INDEX 01 00:17:46
  TRACK 16 AUDIO
    TITLE "5:cjc173_1523"
    INDEX 01 00:17:66
  TRACK 17 AUDIO
    TITLE "0:"
    INDEX 01 00:21:09
  TRACK 18 AUDIO
    TITLE "3:cjc173_1524"
    INDEX 01 00:21:54
  TRACK 19 AUDIO
    TITLE "0:"
    INDEX 01 00:23:13
  TRACK 20 AUDIO
    TITLE "4:cjc173_1525"
    INDEX 01 00:23:37
  TRACK 21 AUDIO
    TITLE "0:"
    INDEX 01 00:25:61
  TRACK 22 AUDIO
    TITLE "5:cjc173_1526"
    INDEX 01 00:26:06
  TRACK 23 AUDIO
    TITLE "0:"
    INDEX 01 00:31:68
  TRACK 24 AUDIO
    TITLE "3:cjc173_1527"
    INDEX 01 00:32:38
  TRACK 25 AUDIO
    TITLE "0:"
    INDEX 01 00:33:45
  TRACK 26 AUDIO
    TITLE "4:cjc173_1528"
    INDEX 01 00:33:67
  TRACK 27 AUDIO
    TITLE "0:"
    INDEX 01 00:36:43
  TRACK 28 AUDIO
    TITLE "5:cjc173_1529"
    INDEX 01 00:36:63
  TRACK 29 AUDIO
    TITLE "0:"
    INDEX 01 00:41:15
  TRACK 30 AUDIO
    TITLE "3:cjc173_1530"
    INDEX 01 00:41:62
  TRACK 31 AUDIO
    TITLE "0:"
    INDEX 01 00:43:20
  TRACK 32 AUDIO
    TITLE "4:cjc173_1531"
    INDEX 01 00:43:41
  TRACK 33 AUDIO
    TITLE "0:"
    INDEX 01 00:46:71
  TRACK 34 AUDIO
    TITLE "5:cjc173_1532"
    INDEX 01 00:47:16
  TRACK 35 AUDIO
    TITLE "0:"
    INDEX 01 00:52:05
  TRACK 36 AUDIO
    TITLE "3:cjc173_1533"
    INDEX 01 00:52:52
  TRACK 37 AUDIO
    TITLE "0:"
    INDEX 01 00:54:02
  TRACK 38 AUDIO
    TITLE "4:cjc173_1534"
    INDEX 01 00:54:22
  TRACK 39 AUDIO
    TITLE "0:"
    INDEX 01 00:58:31
  TRACK 40 AUDIO
    TITLE "5:cjc173_1535"
    INDEX 01 00:58:51
  TRACK 41 AUDIO
    TITLE "0:"
    INDEX 01 01:04:63
  TRACK 42 AUDIO
    TITLE "3:cjc173_1536"
    INDEX 01 01:05:39
  TRACK 43 AUDIO
    TITLE "0:"
    INDEX 01 01:06:54
  TRACK 44 AUDIO
    TITLE "4:cjc173_1537"
    INDEX 01 01:07:03
  TRACK 45 AUDIO
    TITLE "0:"
    INDEX 01 01:09:66
  TRACK 46 AUDIO
    TITLE "5:cjc173_1538"
    INDEX 01 01:10:15
  TRACK 47 AUDIO
    TITLE "0:"
    INDEX 01 01:15:43
  TRACK 48 AUDIO
    TITLE "3:cjc173_1539"
    INDEX 01 01:16:15
  TRACK 49 AUDIO
    TITLE "0:"
    INDEX 01 01:17:56
  TRACK 50 AUDIO
    TITLE "4:cjc173_1540"
    INDEX 01 01:18:03
  TRACK 51 AUDIO
    TITLE "0:"
    INDEX 01 01:24:27
  TRACK 52 AUDIO
    TITLE "5:cjc173_1541"
    INDEX 01 01:24:46
  TRACK 53 AUDIO
    TITLE "0:"
    INDEX 01 01:31:66
  TRACK 54 AUDIO
    TITLE "3:cjc173_1542"
    INDEX 01 01:32:38
  TRACK 55 AUDIO
    TITLE "0:"
    INDEX 01 01:33:65
  TRACK 56 AUDIO
    TITLE "4:cjc173_1543"
    INDEX 01 01:34:11
  TRACK 57 AUDIO
    TITLE "0:"
    INDEX 01 01:36:22
  TRACK 58 AUDIO
    TITLE "5:cjc173_1544"
    INDEX 01 01:36:42
  TRACK 59 AUDIO
    TITLE "0:"
    INDEX 01 01:41:17
